<?xml version="1.0" encoding="utf-8"?>
<svg xmlns="http://www.w3.org/2000/svg" xmlns:xlink="http://www.w3.org/1999/xlink" width="600" height="400" viewBox="0 0 2400 1600">
<defs>
  <clipPath id="clip050">
    <rect x="0" y="0" width="2400" height="1600"/>
  </clipPath>
</defs>
<path clip-path="url(#clip050)" d="
M0 1600 L2400 1600 L2400 0 L0 0  Z
  " fill="#333333" fill-rule="evenodd" fill-opacity="1"/>
<defs>
  <clipPath id="clip051">
    <rect x="480" y="0" width="1681" height="1600"/>
  </clipPath>
</defs>
<path clip-path="url(#clip050)" d="
M262.551 1423.18 L2352.76 1423.18 L2352.76 123.472 L262.551 123.472  Z
  " fill="#333333" fill-rule="evenodd" fill-opacity="1"/>
<defs>
  <clipPath id="clip052">
    <rect x="262" y="123" width="2091" height="1301"/>
  </clipPath>
</defs>
<polyline clip-path="url(#clip052)" style="stroke:#ffffff; stroke-width:2; stroke-opacity:0.1; fill:none" points="
  692.121,1423.18 692.121,123.472 
  "/>
<polyline clip-path="url(#clip052)" style="stroke:#ffffff; stroke-width:2; stroke-opacity:0.1; fill:none" points="
  1239.26,1423.18 1239.26,123.472 
  "/>
<polyline clip-path="url(#clip052)" style="stroke:#ffffff; stroke-width:2; stroke-opacity:0.1; fill:none" points="
  1786.4,1423.18 1786.4,123.472 
  "/>
<polyline clip-path="url(#clip052)" style="stroke:#ffffff; stroke-width:2; stroke-opacity:0.1; fill:none" points="
  2333.54,1423.18 2333.54,123.472 
  "/>
<polyline clip-path="url(#clip050)" style="stroke:#ffffff; stroke-width:4; stroke-opacity:1; fill:none" points="
  262.551,1423.18 2352.76,1423.18 
  "/>
<polyline clip-path="url(#clip050)" style="stroke:#ffffff; stroke-width:4; stroke-opacity:1; fill:none" points="
  692.121,1423.18 692.121,1407.58 
  "/>
<polyline clip-path="url(#clip050)" style="stroke:#ffffff; stroke-width:4; stroke-opacity:1; fill:none" points="
  1239.26,1423.18 1239.26,1407.58 
  "/>
<polyline clip-path="url(#clip050)" style="stroke:#ffffff; stroke-width:4; stroke-opacity:1; fill:none" points="
  1786.4,1423.18 1786.4,1407.58 
  "/>
<polyline clip-path="url(#clip050)" style="stroke:#ffffff; stroke-width:4; stroke-opacity:1; fill:none" points="
  2333.54,1423.18 2333.54,1407.58 
  "/>
<path clip-path="url(#clip050)" d="M 0 0 M640.652 1479.92 L656.971 1479.92 L656.971 1483.85 L635.027 1483.85 L635.027 1479.92 Q637.689 1477.16 642.272 1472.53 Q646.879 1467.88 648.059 1466.54 Q650.305 1464.01 651.184 1462.28 Q652.087 1460.52 652.087 1458.83 Q652.087 1456.07 650.143 1454.34 Q648.221 1452.6 645.119 1452.6 Q642.92 1452.6 640.467 1453.37 Q638.036 1454.13 635.258 1455.68 L635.258 1450.96 Q638.082 1449.82 640.536 1449.25 Q642.99 1448.67 645.027 1448.67 Q650.397 1448.67 653.592 1451.35 Q656.786 1454.04 656.786 1458.53 Q656.786 1460.66 655.976 1462.58 Q655.189 1464.48 653.082 1467.07 Q652.504 1467.74 649.402 1470.96 Q646.3 1474.15 640.652 1479.92 Z" fill="#ffffff" fill-rule="evenodd" fill-opacity="1" /><path clip-path="url(#clip050)" d="M 0 0 M676.786 1452.37 Q673.175 1452.37 671.346 1455.94 Q669.541 1459.48 669.541 1466.61 Q669.541 1473.71 671.346 1477.28 Q673.175 1480.82 676.786 1480.82 Q680.42 1480.82 682.226 1477.28 Q684.054 1473.71 684.054 1466.61 Q684.054 1459.48 682.226 1455.94 Q680.42 1452.37 676.786 1452.37 M676.786 1448.67 Q682.596 1448.67 685.652 1453.27 Q688.73 1457.86 688.73 1466.61 Q688.73 1475.33 685.652 1479.94 Q682.596 1484.52 676.786 1484.52 Q670.976 1484.52 667.897 1479.94 Q664.842 1475.33 664.842 1466.61 Q664.842 1457.86 667.897 1453.27 Q670.976 1448.67 676.786 1448.67 Z" fill="#ffffff" fill-rule="evenodd" fill-opacity="1" /><path clip-path="url(#clip050)" d="M 0 0 M697.758 1479.92 L705.397 1479.92 L705.397 1453.55 L697.087 1455.22 L697.087 1450.96 L705.351 1449.29 L710.026 1449.29 L710.026 1479.92 L717.665 1479.92 L717.665 1483.85 L697.758 1483.85 L697.758 1479.92 Z" fill="#ffffff" fill-rule="evenodd" fill-opacity="1" /><path clip-path="url(#clip050)" d="M 0 0 M737.688 1464.71 Q734.54 1464.71 732.688 1466.86 Q730.86 1469.01 730.86 1472.76 Q730.86 1476.49 732.688 1478.67 Q734.54 1480.82 737.688 1480.82 Q740.837 1480.82 742.665 1478.67 Q744.517 1476.49 744.517 1472.76 Q744.517 1469.01 742.665 1466.86 Q740.837 1464.71 737.688 1464.71 M746.971 1450.06 L746.971 1454.31 Q745.211 1453.48 743.406 1453.04 Q741.624 1452.6 739.864 1452.6 Q735.235 1452.6 732.781 1455.73 Q730.35 1458.85 730.003 1465.17 Q731.369 1463.16 733.429 1462.09 Q735.489 1461 737.966 1461 Q743.174 1461 746.184 1464.18 Q749.216 1467.32 749.216 1472.76 Q749.216 1478.09 746.068 1481.31 Q742.92 1484.52 737.688 1484.52 Q731.693 1484.52 728.522 1479.94 Q725.35 1475.33 725.35 1466.61 Q725.35 1458.41 729.239 1453.55 Q733.128 1448.67 739.679 1448.67 Q741.438 1448.67 743.221 1449.01 Q745.026 1449.36 746.971 1450.06 Z" fill="#ffffff" fill-rule="evenodd" fill-opacity="1" /><path clip-path="url(#clip050)" d="M 0 0 M1187.92 1479.92 L1204.24 1479.92 L1204.24 1483.85 L1182.29 1483.85 L1182.29 1479.92 Q1184.96 1477.16 1189.54 1472.53 Q1194.15 1467.88 1195.33 1466.54 Q1197.57 1464.01 1198.45 1462.28 Q1199.35 1460.52 1199.35 1458.83 Q1199.35 1456.07 1197.41 1454.34 Q1195.49 1452.6 1192.39 1452.6 Q1190.19 1452.6 1187.73 1453.37 Q1185.3 1454.13 1182.53 1455.68 L1182.53 1450.96 Q1185.35 1449.82 1187.8 1449.25 Q1190.26 1448.67 1192.29 1448.67 Q1197.66 1448.67 1200.86 1451.35 Q1204.05 1454.04 1204.05 1458.53 Q1204.05 1460.66 1203.24 1462.58 Q1202.46 1464.48 1200.35 1467.07 Q1199.77 1467.74 1196.67 1470.96 Q1193.57 1474.15 1187.92 1479.92 Z" fill="#ffffff" fill-rule="evenodd" fill-opacity="1" /><path clip-path="url(#clip050)" d="M 0 0 M1224.05 1452.37 Q1220.44 1452.37 1218.61 1455.94 Q1216.81 1459.48 1216.81 1466.61 Q1216.81 1473.71 1218.61 1477.28 Q1220.44 1480.82 1224.05 1480.82 Q1227.69 1480.82 1229.49 1477.28 Q1231.32 1473.71 1231.32 1466.61 Q1231.32 1459.48 1229.49 1455.94 Q1227.69 1452.37 1224.05 1452.37 M1224.05 1448.67 Q1229.86 1448.67 1232.92 1453.27 Q1236 1457.86 1236 1466.61 Q1236 1475.33 1232.92 1479.94 Q1229.86 1484.52 1224.05 1484.52 Q1218.24 1484.52 1215.16 1479.94 Q1212.11 1475.33 1212.11 1466.61 Q1212.11 1457.86 1215.16 1453.27 Q1218.24 1448.67 1224.05 1448.67 Z" fill="#ffffff" fill-rule="evenodd" fill-opacity="1" /><path clip-path="url(#clip050)" d="M 0 0 M1245.02 1479.92 L1252.66 1479.92 L1252.66 1453.55 L1244.35 1455.22 L1244.35 1450.96 L1252.62 1449.29 L1257.29 1449.29 L1257.29 1479.92 L1264.93 1479.92 L1264.93 1483.85 L1245.02 1483.85 L1245.02 1479.92 Z" fill="#ffffff" fill-rule="evenodd" fill-opacity="1" /><path clip-path="url(#clip050)" d="M 0 0 M1284.38 1467.44 Q1281.04 1467.44 1279.12 1469.22 Q1277.22 1471 1277.22 1474.13 Q1277.22 1477.25 1279.12 1479.04 Q1281.04 1480.82 1284.38 1480.82 Q1287.71 1480.82 1289.63 1479.04 Q1291.55 1477.23 1291.55 1474.13 Q1291.55 1471 1289.63 1469.22 Q1287.73 1467.44 1284.38 1467.44 M1279.7 1465.45 Q1276.69 1464.71 1275 1462.65 Q1273.34 1460.59 1273.34 1457.63 Q1273.34 1453.48 1276.27 1451.07 Q1279.24 1448.67 1284.38 1448.67 Q1289.54 1448.67 1292.48 1451.07 Q1295.42 1453.48 1295.42 1457.63 Q1295.42 1460.59 1293.73 1462.65 Q1292.06 1464.71 1289.08 1465.45 Q1292.46 1466.24 1294.33 1468.53 Q1296.23 1470.82 1296.23 1474.13 Q1296.23 1479.15 1293.15 1481.84 Q1290.09 1484.52 1284.38 1484.52 Q1278.66 1484.52 1275.58 1481.84 Q1272.52 1479.15 1272.52 1474.13 Q1272.52 1470.82 1274.42 1468.53 Q1276.32 1466.24 1279.7 1465.45 M1277.99 1458.06 Q1277.99 1460.75 1279.65 1462.25 Q1281.34 1463.76 1284.38 1463.76 Q1287.39 1463.76 1289.08 1462.25 Q1290.79 1460.75 1290.79 1458.06 Q1290.79 1455.38 1289.08 1453.88 Q1287.39 1452.37 1284.38 1452.37 Q1281.34 1452.37 1279.65 1453.88 Q1277.99 1455.38 1277.99 1458.06 Z" fill="#ffffff" fill-rule="evenodd" fill-opacity="1" /><path clip-path="url(#clip050)" d="M 0 0 M1735.01 1479.92 L1751.33 1479.92 L1751.33 1483.85 L1729.39 1483.85 L1729.39 1479.92 Q1732.05 1477.16 1736.63 1472.53 Q1741.24 1467.88 1742.42 1466.54 Q1744.66 1464.01 1745.54 1462.28 Q1746.45 1460.52 1746.45 1458.83 Q1746.45 1456.07 1744.5 1454.34 Q1742.58 1452.6 1739.48 1452.6 Q1737.28 1452.6 1734.83 1453.37 Q1732.4 1454.13 1729.62 1455.68 L1729.62 1450.96 Q1732.44 1449.82 1734.9 1449.25 Q1737.35 1448.67 1739.39 1448.67 Q1744.76 1448.67 1747.95 1451.35 Q1751.15 1454.04 1751.15 1458.53 Q1751.15 1460.66 1750.34 1462.58 Q1749.55 1464.48 1747.44 1467.07 Q1746.86 1467.74 1743.76 1470.96 Q1740.66 1474.15 1735.01 1479.92 Z" fill="#ffffff" fill-rule="evenodd" fill-opacity="1" /><path clip-path="url(#clip050)" d="M 0 0 M1771.15 1452.37 Q1767.54 1452.37 1765.71 1455.94 Q1763.9 1459.48 1763.9 1466.61 Q1763.9 1473.71 1765.71 1477.28 Q1767.54 1480.82 1771.15 1480.82 Q1774.78 1480.82 1776.59 1477.28 Q1778.41 1473.71 1778.41 1466.61 Q1778.41 1459.48 1776.59 1455.94 Q1774.78 1452.37 1771.15 1452.37 M1771.15 1448.67 Q1776.96 1448.67 1780.01 1453.27 Q1783.09 1457.86 1783.09 1466.61 Q1783.09 1475.33 1780.01 1479.94 Q1776.96 1484.52 1771.15 1484.52 Q1765.34 1484.52 1762.26 1479.94 Q1759.2 1475.33 1759.2 1466.61 Q1759.2 1457.86 1762.26 1453.27 Q1765.34 1448.67 1771.15 1448.67 Z" fill="#ffffff" fill-rule="evenodd" fill-opacity="1" /><path clip-path="url(#clip050)" d="M 0 0 M1795.34 1479.92 L1811.66 1479.92 L1811.66 1483.85 L1789.71 1483.85 L1789.71 1479.92 Q1792.37 1477.16 1796.96 1472.53 Q1801.56 1467.88 1802.74 1466.54 Q1804.99 1464.01 1805.87 1462.28 Q1806.77 1460.52 1806.77 1458.83 Q1806.77 1456.07 1804.83 1454.34 Q1802.91 1452.6 1799.8 1452.6 Q1797.6 1452.6 1795.15 1453.37 Q1792.72 1454.13 1789.94 1455.68 L1789.94 1450.96 Q1792.77 1449.82 1795.22 1449.25 Q1797.67 1448.67 1799.71 1448.67 Q1805.08 1448.67 1808.28 1451.35 Q1811.47 1454.04 1811.47 1458.53 Q1811.47 1460.66 1810.66 1462.58 Q1809.87 1464.48 1807.77 1467.07 Q1807.19 1467.74 1804.09 1470.96 Q1800.98 1474.15 1795.34 1479.92 Z" fill="#ffffff" fill-rule="evenodd" fill-opacity="1" /><path clip-path="url(#clip050)" d="M 0 0 M1831.47 1452.37 Q1827.86 1452.37 1826.03 1455.94 Q1824.22 1459.48 1824.22 1466.61 Q1824.22 1473.71 1826.03 1477.28 Q1827.86 1480.82 1831.47 1480.82 Q1835.1 1480.82 1836.91 1477.28 Q1838.74 1473.71 1838.74 1466.61 Q1838.74 1459.48 1836.91 1455.94 Q1835.1 1452.37 1831.47 1452.37 M1831.47 1448.67 Q1837.28 1448.67 1840.34 1453.27 Q1843.41 1457.86 1843.41 1466.61 Q1843.41 1475.33 1840.34 1479.94 Q1837.28 1484.52 1831.47 1484.52 Q1825.66 1484.52 1822.58 1479.94 Q1819.53 1475.33 1819.53 1466.61 Q1819.53 1457.86 1822.58 1453.27 Q1825.66 1448.67 1831.47 1448.67 Z" fill="#ffffff" fill-rule="evenodd" fill-opacity="1" /><path clip-path="url(#clip050)" d="M 0 0 M2282.95 1479.92 L2299.27 1479.92 L2299.27 1483.85 L2277.33 1483.85 L2277.33 1479.92 Q2279.99 1477.16 2284.57 1472.53 Q2289.18 1467.88 2290.36 1466.54 Q2292.6 1464.01 2293.48 1462.28 Q2294.39 1460.52 2294.39 1458.83 Q2294.39 1456.07 2292.44 1454.34 Q2290.52 1452.6 2287.42 1452.6 Q2285.22 1452.6 2282.77 1453.37 Q2280.33 1454.13 2277.56 1455.68 L2277.56 1450.96 Q2280.38 1449.82 2282.83 1449.25 Q2285.29 1448.67 2287.33 1448.67 Q2292.7 1448.67 2295.89 1451.35 Q2299.08 1454.04 2299.08 1458.53 Q2299.08 1460.66 2298.27 1462.58 Q2297.49 1464.48 2295.38 1467.07 Q2294.8 1467.74 2291.7 1470.96 Q2288.6 1474.15 2282.95 1479.92 Z" fill="#ffffff" fill-rule="evenodd" fill-opacity="1" /><path clip-path="url(#clip050)" d="M 0 0 M2319.08 1452.37 Q2315.47 1452.37 2313.64 1455.94 Q2311.84 1459.48 2311.84 1466.61 Q2311.84 1473.71 2313.64 1477.28 Q2315.47 1480.82 2319.08 1480.82 Q2322.72 1480.82 2324.52 1477.28 Q2326.35 1473.71 2326.35 1466.61 Q2326.35 1459.48 2324.52 1455.94 Q2322.72 1452.37 2319.08 1452.37 M2319.08 1448.67 Q2324.89 1448.67 2327.95 1453.27 Q2331.03 1457.86 2331.03 1466.61 Q2331.03 1475.33 2327.95 1479.94 Q2324.89 1484.52 2319.08 1484.52 Q2313.27 1484.52 2310.2 1479.94 Q2307.14 1475.33 2307.14 1466.61 Q2307.14 1457.86 2310.2 1453.27 Q2313.27 1448.67 2319.08 1448.67 Z" fill="#ffffff" fill-rule="evenodd" fill-opacity="1" /><path clip-path="url(#clip050)" d="M 0 0 M2343.27 1479.92 L2359.59 1479.92 L2359.59 1483.85 L2337.65 1483.85 L2337.65 1479.92 Q2340.31 1477.16 2344.89 1472.53 Q2349.5 1467.88 2350.68 1466.54 Q2352.93 1464.01 2353.81 1462.28 Q2354.71 1460.52 2354.71 1458.83 Q2354.71 1456.07 2352.76 1454.34 Q2350.84 1452.6 2347.74 1452.6 Q2345.54 1452.6 2343.09 1453.37 Q2340.66 1454.13 2337.88 1455.68 L2337.88 1450.96 Q2340.7 1449.82 2343.16 1449.25 Q2345.61 1448.67 2347.65 1448.67 Q2353.02 1448.67 2356.21 1451.35 Q2359.41 1454.04 2359.41 1458.53 Q2359.41 1460.66 2358.6 1462.58 Q2357.81 1464.48 2355.7 1467.07 Q2355.13 1467.74 2352.02 1470.96 Q2348.92 1474.15 2343.27 1479.92 Z" fill="#ffffff" fill-rule="evenodd" fill-opacity="1" /><path clip-path="url(#clip050)" d="M 0 0 M2373.44 1479.92 L2389.76 1479.92 L2389.76 1483.85 L2367.81 1483.85 L2367.81 1479.92 Q2370.47 1477.16 2375.06 1472.53 Q2379.66 1467.88 2380.84 1466.54 Q2383.09 1464.01 2383.97 1462.28 Q2384.87 1460.52 2384.87 1458.83 Q2384.87 1456.07 2382.93 1454.34 Q2381.01 1452.6 2377.9 1452.6 Q2375.7 1452.6 2373.25 1453.37 Q2370.82 1454.13 2368.04 1455.68 L2368.04 1450.96 Q2370.87 1449.82 2373.32 1449.25 Q2375.77 1448.67 2377.81 1448.67 Q2383.18 1448.67 2386.38 1451.35 Q2389.57 1454.04 2389.57 1458.53 Q2389.57 1460.66 2388.76 1462.58 Q2387.97 1464.48 2385.87 1467.07 Q2385.29 1467.74 2382.19 1470.96 Q2379.08 1474.15 2373.44 1479.92 Z" fill="#ffffff" fill-rule="evenodd" fill-opacity="1" /><path clip-path="url(#clip050)" d="M 0 0 M1223.2 1520.52 L1230.1 1520.52 L1243.28 1540.07 L1256.36 1520.52 L1263.27 1520.52 L1246.46 1545.41 L1246.46 1568.04 L1240 1568.04 L1240 1545.41 L1223.2 1520.52 Z" fill="#ffffff" fill-rule="evenodd" fill-opacity="1" /><path clip-path="url(#clip050)" d="M 0 0 M1291.12 1548.76 L1291.12 1551.62 L1264.19 1551.62 Q1264.57 1557.67 1267.82 1560.85 Q1271.1 1564 1276.92 1564 Q1280.3 1564 1283.45 1563.17 Q1286.63 1562.35 1289.75 1560.69 L1289.75 1566.23 Q1286.6 1567.57 1283.29 1568.27 Q1279.98 1568.97 1276.57 1568.97 Q1268.04 1568.97 1263.05 1564 Q1258.08 1559.04 1258.08 1550.57 Q1258.08 1541.82 1262.79 1536.69 Q1267.53 1531.54 1275.55 1531.54 Q1282.75 1531.54 1286.92 1536.18 Q1291.12 1540.8 1291.12 1548.76 M1285.26 1547.04 Q1285.2 1542.23 1282.56 1539.37 Q1279.95 1536.5 1275.62 1536.5 Q1270.72 1536.5 1267.76 1539.27 Q1264.83 1542.04 1264.38 1547.07 L1285.26 1547.04 Z" fill="#ffffff" fill-rule="evenodd" fill-opacity="1" /><path clip-path="url(#clip050)" d="M 0 0 M1316.93 1550.12 Q1309.83 1550.12 1307.1 1551.75 Q1304.36 1553.37 1304.36 1557.29 Q1304.36 1560.4 1306.4 1562.25 Q1308.47 1564.07 1312 1564.07 Q1316.87 1564.07 1319.8 1560.63 Q1322.76 1557.16 1322.76 1551.43 L1322.76 1550.12 L1316.93 1550.12 M1328.61 1547.71 L1328.61 1568.04 L1322.76 1568.04 L1322.76 1562.63 Q1320.75 1565.88 1317.76 1567.44 Q1314.77 1568.97 1310.44 1568.97 Q1304.96 1568.97 1301.72 1565.91 Q1298.5 1562.82 1298.5 1557.67 Q1298.5 1551.65 1302.51 1548.6 Q1306.56 1545.54 1314.54 1545.54 L1322.76 1545.54 L1322.76 1544.97 Q1322.76 1540.93 1320.08 1538.73 Q1317.44 1536.5 1312.63 1536.5 Q1309.58 1536.5 1306.68 1537.23 Q1303.79 1537.97 1301.11 1539.43 L1301.11 1534.02 Q1304.33 1532.78 1307.35 1532.17 Q1310.37 1531.54 1313.24 1531.54 Q1320.97 1531.54 1324.79 1535.55 Q1328.61 1539.56 1328.61 1547.71 Z" fill="#ffffff" fill-rule="evenodd" fill-opacity="1" /><path clip-path="url(#clip050)" d="M 0 0 M1361.33 1537.87 Q1360.35 1537.3 1359.17 1537.04 Q1358.02 1536.76 1356.62 1536.76 Q1351.66 1536.76 1348.98 1540 Q1346.34 1543.22 1346.34 1549.27 L1346.34 1568.04 L1340.45 1568.04 L1340.45 1532.4 L1346.34 1532.4 L1346.34 1537.93 Q1348.19 1534.69 1351.15 1533.13 Q1354.11 1531.54 1358.34 1531.54 Q1358.95 1531.54 1359.68 1531.63 Q1360.41 1531.7 1361.3 1531.85 L1361.33 1537.87 Z" fill="#ffffff" fill-rule="evenodd" fill-opacity="1" /><path clip-path="url(#clip050)" d="M 0 0 M1390.2 1533.45 L1390.2 1538.98 Q1387.72 1537.71 1385.04 1537.07 Q1382.37 1536.44 1379.51 1536.44 Q1375.15 1536.44 1372.95 1537.77 Q1370.79 1539.11 1370.79 1541.79 Q1370.79 1543.82 1372.35 1545 Q1373.9 1546.15 1378.62 1547.2 L1380.62 1547.64 Q1386.86 1548.98 1389.47 1551.43 Q1392.11 1553.85 1392.11 1558.21 Q1392.11 1563.17 1388.16 1566.07 Q1384.25 1568.97 1377.37 1568.97 Q1374.51 1568.97 1371.39 1568.39 Q1368.3 1567.85 1364.87 1566.74 L1364.87 1560.69 Q1368.11 1562.38 1371.26 1563.24 Q1374.41 1564.07 1377.5 1564.07 Q1381.64 1564.07 1383.87 1562.66 Q1386.09 1561.23 1386.09 1558.65 Q1386.09 1556.27 1384.47 1554.99 Q1382.88 1553.72 1377.44 1552.54 L1375.4 1552.07 Q1369.96 1550.92 1367.54 1548.56 Q1365.12 1546.18 1365.12 1542.04 Q1365.12 1537.01 1368.68 1534.27 Q1372.25 1531.54 1378.81 1531.54 Q1382.05 1531.54 1384.92 1532.01 Q1387.78 1532.49 1390.2 1533.45 Z" fill="#ffffff" fill-rule="evenodd" fill-opacity="1" /><polyline clip-path="url(#clip052)" style="stroke:#ffffff; stroke-width:2; stroke-opacity:0.1; fill:none" points="
  262.551,1386.4 2352.76,1386.4 
  "/>
<polyline clip-path="url(#clip052)" style="stroke:#ffffff; stroke-width:2; stroke-opacity:0.1; fill:none" points="
  262.551,1070.71 2352.76,1070.71 
  "/>
<polyline clip-path="url(#clip052)" style="stroke:#ffffff; stroke-width:2; stroke-opacity:0.1; fill:none" points="
  262.551,755.016 2352.76,755.016 
  "/>
<polyline clip-path="url(#clip052)" style="stroke:#ffffff; stroke-width:2; stroke-opacity:0.1; fill:none" points="
  262.551,439.326 2352.76,439.326 
  "/>
<polyline clip-path="url(#clip052)" style="stroke:#ffffff; stroke-width:2; stroke-opacity:0.1; fill:none" points="
  262.551,123.636 2352.76,123.636 
  "/>
<polyline clip-path="url(#clip050)" style="stroke:#ffffff; stroke-width:4; stroke-opacity:1; fill:none" points="
  262.551,1423.18 262.551,123.472 
  "/>
<polyline clip-path="url(#clip050)" style="stroke:#ffffff; stroke-width:4; stroke-opacity:1; fill:none" points="
  262.551,1386.4 287.634,1386.4 
  "/>
<polyline clip-path="url(#clip050)" style="stroke:#ffffff; stroke-width:4; stroke-opacity:1; fill:none" points="
  262.551,1070.71 287.634,1070.71 
  "/>
<polyline clip-path="url(#clip050)" style="stroke:#ffffff; stroke-width:4; stroke-opacity:1; fill:none" points="
  262.551,755.016 287.634,755.016 
  "/>
<polyline clip-path="url(#clip050)" style="stroke:#ffffff; stroke-width:4; stroke-opacity:1; fill:none" points="
  262.551,439.326 287.634,439.326 
  "/>
<polyline clip-path="url(#clip050)" style="stroke:#ffffff; stroke-width:4; stroke-opacity:1; fill:none" points="
  262.551,123.636 287.634,123.636 
  "/>
<path clip-path="url(#clip050)" d="M 0 0 M214.607 1372.19 Q210.996 1372.19 209.167 1375.76 Q207.362 1379.3 207.362 1386.43 Q207.362 1393.54 209.167 1397.1 Q210.996 1400.64 214.607 1400.64 Q218.241 1400.64 220.047 1397.1 Q221.875 1393.54 221.875 1386.43 Q221.875 1379.3 220.047 1375.76 Q218.241 1372.19 214.607 1372.19 M214.607 1368.49 Q220.417 1368.49 223.473 1373.1 Q226.551 1377.68 226.551 1386.43 Q226.551 1395.16 223.473 1399.76 Q220.417 1404.35 214.607 1404.35 Q208.797 1404.35 205.718 1399.76 Q202.662 1395.16 202.662 1386.43 Q202.662 1377.68 205.718 1373.1 Q208.797 1368.49 214.607 1368.49 Z" fill="#ffffff" fill-rule="evenodd" fill-opacity="1" /><path clip-path="url(#clip050)" d="M 0 0 M148.311 1084.05 L164.63 1084.05 L164.63 1087.99 L142.686 1087.99 L142.686 1084.05 Q145.348 1081.3 149.931 1076.67 Q154.538 1072.01 155.718 1070.67 Q157.964 1068.15 158.843 1066.41 Q159.746 1064.65 159.746 1062.96 Q159.746 1060.21 157.802 1058.47 Q155.88 1056.74 152.778 1056.74 Q150.579 1056.74 148.126 1057.5 Q145.695 1058.26 142.917 1059.81 L142.917 1055.09 Q145.741 1053.96 148.195 1053.38 Q150.649 1052.8 152.686 1052.8 Q158.056 1052.8 161.251 1055.49 Q164.445 1058.17 164.445 1062.66 Q164.445 1064.79 163.635 1066.71 Q162.848 1068.61 160.741 1071.2 Q160.163 1071.87 157.061 1075.09 Q153.959 1078.29 148.311 1084.05 Z" fill="#ffffff" fill-rule="evenodd" fill-opacity="1" /><path clip-path="url(#clip050)" d="M 0 0 M174.491 1053.43 L192.848 1053.43 L192.848 1057.36 L178.774 1057.36 L178.774 1065.83 Q179.792 1065.49 180.811 1065.32 Q181.829 1065.14 182.848 1065.14 Q188.635 1065.14 192.014 1068.31 Q195.394 1071.48 195.394 1076.9 Q195.394 1082.48 191.922 1085.58 Q188.45 1088.66 182.13 1088.66 Q179.954 1088.66 177.686 1088.29 Q175.44 1087.92 173.033 1087.18 L173.033 1082.48 Q175.116 1083.61 177.339 1084.17 Q179.561 1084.72 182.038 1084.72 Q186.042 1084.72 188.38 1082.62 Q190.718 1080.51 190.718 1076.9 Q190.718 1073.29 188.38 1071.18 Q186.042 1069.07 182.038 1069.07 Q180.163 1069.07 178.288 1069.49 Q176.436 1069.91 174.491 1070.79 L174.491 1053.43 Z" fill="#ffffff" fill-rule="evenodd" fill-opacity="1" /><path clip-path="url(#clip050)" d="M 0 0 M214.607 1056.5 Q210.996 1056.5 209.167 1060.07 Q207.362 1063.61 207.362 1070.74 Q207.362 1077.85 209.167 1081.41 Q210.996 1084.95 214.607 1084.95 Q218.241 1084.95 220.047 1081.41 Q221.875 1077.85 221.875 1070.74 Q221.875 1063.61 220.047 1060.07 Q218.241 1056.5 214.607 1056.5 M214.607 1052.8 Q220.417 1052.8 223.473 1057.41 Q226.551 1061.99 226.551 1070.74 Q226.551 1079.47 223.473 1084.07 Q220.417 1088.66 214.607 1088.66 Q208.797 1088.66 205.718 1084.07 Q202.662 1079.47 202.662 1070.74 Q202.662 1061.99 205.718 1057.41 Q208.797 1052.8 214.607 1052.8 Z" fill="#ffffff" fill-rule="evenodd" fill-opacity="1" /><path clip-path="url(#clip050)" d="M 0 0 M144.329 737.736 L162.686 737.736 L162.686 741.671 L148.612 741.671 L148.612 750.143 Q149.63 749.796 150.649 749.634 Q151.667 749.449 152.686 749.449 Q158.473 749.449 161.852 752.62 Q165.232 755.791 165.232 761.208 Q165.232 766.787 161.76 769.889 Q158.288 772.967 151.968 772.967 Q149.792 772.967 147.524 772.597 Q145.279 772.227 142.871 771.486 L142.871 766.787 Q144.954 767.921 147.177 768.477 Q149.399 769.032 151.876 769.032 Q155.88 769.032 158.218 766.926 Q160.556 764.819 160.556 761.208 Q160.556 757.597 158.218 755.491 Q155.88 753.384 151.876 753.384 Q150.001 753.384 148.126 753.801 Q146.274 754.217 144.329 755.097 L144.329 737.736 Z" fill="#ffffff" fill-rule="evenodd" fill-opacity="1" /><path clip-path="url(#clip050)" d="M 0 0 M184.445 740.815 Q180.834 740.815 179.005 744.379 Q177.2 747.921 177.2 755.051 Q177.2 762.157 179.005 765.722 Q180.834 769.264 184.445 769.264 Q188.079 769.264 189.885 765.722 Q191.713 762.157 191.713 755.051 Q191.713 747.921 189.885 744.379 Q188.079 740.815 184.445 740.815 M184.445 737.111 Q190.255 737.111 193.311 741.717 Q196.389 746.301 196.389 755.051 Q196.389 763.778 193.311 768.384 Q190.255 772.967 184.445 772.967 Q178.635 772.967 175.556 768.384 Q172.501 763.778 172.501 755.051 Q172.501 746.301 175.556 741.717 Q178.635 737.111 184.445 737.111 Z" fill="#ffffff" fill-rule="evenodd" fill-opacity="1" /><path clip-path="url(#clip050)" d="M 0 0 M214.607 740.815 Q210.996 740.815 209.167 744.379 Q207.362 747.921 207.362 755.051 Q207.362 762.157 209.167 765.722 Q210.996 769.264 214.607 769.264 Q218.241 769.264 220.047 765.722 Q221.875 762.157 221.875 755.051 Q221.875 747.921 220.047 744.379 Q218.241 740.815 214.607 740.815 M214.607 737.111 Q220.417 737.111 223.473 741.717 Q226.551 746.301 226.551 755.051 Q226.551 763.778 223.473 768.384 Q220.417 772.967 214.607 772.967 Q208.797 772.967 205.718 768.384 Q202.662 763.778 202.662 755.051 Q202.662 746.301 205.718 741.717 Q208.797 737.111 214.607 737.111 Z" fill="#ffffff" fill-rule="evenodd" fill-opacity="1" /><path clip-path="url(#clip050)" d="M 0 0 M143.103 422.046 L165.325 422.046 L165.325 424.037 L152.778 456.606 L147.894 456.606 L159.7 425.981 L143.103 425.981 L143.103 422.046 Z" fill="#ffffff" fill-rule="evenodd" fill-opacity="1" /><path clip-path="url(#clip050)" d="M 0 0 M174.491 422.046 L192.848 422.046 L192.848 425.981 L178.774 425.981 L178.774 434.453 Q179.792 434.106 180.811 433.944 Q181.829 433.759 182.848 433.759 Q188.635 433.759 192.014 436.93 Q195.394 440.102 195.394 445.518 Q195.394 451.097 191.922 454.199 Q188.45 457.277 182.13 457.277 Q179.954 457.277 177.686 456.907 Q175.44 456.537 173.033 455.796 L173.033 451.097 Q175.116 452.231 177.339 452.787 Q179.561 453.342 182.038 453.342 Q186.042 453.342 188.38 451.236 Q190.718 449.129 190.718 445.518 Q190.718 441.907 188.38 439.801 Q186.042 437.694 182.038 437.694 Q180.163 437.694 178.288 438.111 Q176.436 438.528 174.491 439.407 L174.491 422.046 Z" fill="#ffffff" fill-rule="evenodd" fill-opacity="1" /><path clip-path="url(#clip050)" d="M 0 0 M214.607 425.125 Q210.996 425.125 209.167 428.69 Q207.362 432.231 207.362 439.361 Q207.362 446.467 209.167 450.032 Q210.996 453.574 214.607 453.574 Q218.241 453.574 220.047 450.032 Q221.875 446.467 221.875 439.361 Q221.875 432.231 220.047 428.69 Q218.241 425.125 214.607 425.125 M214.607 421.421 Q220.417 421.421 223.473 426.028 Q226.551 430.611 226.551 439.361 Q226.551 448.088 223.473 452.694 Q220.417 457.277 214.607 457.277 Q208.797 457.277 205.718 452.694 Q202.662 448.088 202.662 439.361 Q202.662 430.611 205.718 426.028 Q208.797 421.421 214.607 421.421 Z" fill="#ffffff" fill-rule="evenodd" fill-opacity="1" /><path clip-path="url(#clip050)" d="M 0 0 M114.931 136.981 L122.57 136.981 L122.57 110.616 L114.26 112.282 L114.26 108.023 L122.524 106.356 L127.2 106.356 L127.2 136.981 L134.839 136.981 L134.839 140.916 L114.931 140.916 L114.931 136.981 Z" fill="#ffffff" fill-rule="evenodd" fill-opacity="1" /><path clip-path="url(#clip050)" d="M 0 0 M154.283 109.435 Q150.672 109.435 148.843 113 Q147.038 116.541 147.038 123.671 Q147.038 130.777 148.843 134.342 Q150.672 137.884 154.283 137.884 Q157.917 137.884 159.723 134.342 Q161.552 130.777 161.552 123.671 Q161.552 116.541 159.723 113 Q157.917 109.435 154.283 109.435 M154.283 105.731 Q160.093 105.731 163.149 110.338 Q166.227 114.921 166.227 123.671 Q166.227 132.398 163.149 137.004 Q160.093 141.588 154.283 141.588 Q148.473 141.588 145.394 137.004 Q142.339 132.398 142.339 123.671 Q142.339 114.921 145.394 110.338 Q148.473 105.731 154.283 105.731 Z" fill="#ffffff" fill-rule="evenodd" fill-opacity="1" /><path clip-path="url(#clip050)" d="M 0 0 M184.445 109.435 Q180.834 109.435 179.005 113 Q177.2 116.541 177.2 123.671 Q177.2 130.777 179.005 134.342 Q180.834 137.884 184.445 137.884 Q188.079 137.884 189.885 134.342 Q191.713 130.777 191.713 123.671 Q191.713 116.541 189.885 113 Q188.079 109.435 184.445 109.435 M184.445 105.731 Q190.255 105.731 193.311 110.338 Q196.389 114.921 196.389 123.671 Q196.389 132.398 193.311 137.004 Q190.255 141.588 184.445 141.588 Q178.635 141.588 175.556 137.004 Q172.501 132.398 172.501 123.671 Q172.501 114.921 175.556 110.338 Q178.635 105.731 184.445 105.731 Z" fill="#ffffff" fill-rule="evenodd" fill-opacity="1" /><path clip-path="url(#clip050)" d="M 0 0 M214.607 109.435 Q210.996 109.435 209.167 113 Q207.362 116.541 207.362 123.671 Q207.362 130.777 209.167 134.342 Q210.996 137.884 214.607 137.884 Q218.241 137.884 220.047 134.342 Q221.875 130.777 221.875 123.671 Q221.875 116.541 220.047 113 Q218.241 109.435 214.607 109.435 M214.607 105.731 Q220.417 105.731 223.473 110.338 Q226.551 114.921 226.551 123.671 Q226.551 132.398 223.473 137.004 Q220.417 141.588 214.607 141.588 Q208.797 141.588 205.718 137.004 Q202.662 132.398 202.662 123.671 Q202.662 114.921 205.718 110.338 Q208.797 105.731 214.607 105.731 Z" fill="#ffffff" fill-rule="evenodd" fill-opacity="1" /><path clip-path="url(#clip050)" d="M 0 0 M18.0438 900.385 L24.314 900.385 Q22.5634 904.046 21.704 907.292 Q20.8447 910.539 20.8447 913.563 Q20.8447 918.814 22.8817 921.679 Q24.9187 924.512 28.6745 924.512 Q31.8255 924.512 33.4488 922.634 Q35.0402 920.724 36.0269 915.44 L36.8226 911.557 Q38.1912 904.364 41.6605 900.958 Q45.098 897.521 50.8908 897.521 Q57.7976 897.521 61.3624 902.168 Q64.9272 906.783 64.9272 915.727 Q64.9272 919.101 64.1633 922.92 Q63.3994 926.708 61.9035 930.782 L55.2831 930.782 Q57.4793 926.867 58.5933 923.111 Q59.7073 919.355 59.7073 915.727 Q59.7073 910.221 57.543 907.229 Q55.3786 904.237 51.3682 904.237 Q47.8671 904.237 45.8937 906.401 Q43.9204 908.534 42.9337 913.435 L42.1698 917.35 Q40.7375 924.543 37.682 927.758 Q34.6264 930.973 29.1837 930.973 Q22.8817 930.973 19.2532 926.549 Q15.6248 922.093 15.6248 914.295 Q15.6248 910.953 16.2295 907.483 Q16.8343 904.014 18.0438 900.385 Z" fill="#ffffff" fill-rule="evenodd" fill-opacity="1" /><path clip-path="url(#clip050)" d="M 0 0 M42.4881 858.117 L64.0042 858.117 L64.0042 863.974 L42.679 863.974 Q37.6183 863.974 35.1038 865.947 Q32.5894 867.92 32.5894 871.867 Q32.5894 876.61 35.6131 879.347 Q38.6368 882.084 43.8567 882.084 L64.0042 882.084 L64.0042 887.972 L14.479 887.972 L14.479 882.084 L33.8944 882.084 Q30.6797 879.983 29.0883 877.151 Q27.4968 874.286 27.4968 870.562 Q27.4968 864.419 31.3163 861.268 Q35.1038 858.117 42.4881 858.117 Z" fill="#ffffff" fill-rule="evenodd" fill-opacity="1" /><path clip-path="url(#clip050)" d="M 0 0 M32.4621 832.623 Q32.4621 837.333 36.1542 840.07 Q39.8145 842.808 46.212 842.808 Q52.6095 842.808 56.3017 840.102 Q59.9619 837.365 59.9619 832.623 Q59.9619 827.944 56.2698 825.206 Q52.5777 822.469 46.212 822.469 Q39.8781 822.469 36.186 825.206 Q32.4621 827.944 32.4621 832.623 M27.4968 832.623 Q27.4968 824.984 32.4621 820.623 Q37.4273 816.263 46.212 816.263 Q54.9649 816.263 59.9619 820.623 Q64.9272 824.984 64.9272 832.623 Q64.9272 840.293 59.9619 844.654 Q54.9649 848.982 46.212 848.982 Q37.4273 848.982 32.4621 844.654 Q27.4968 840.293 27.4968 832.623 Z" fill="#ffffff" fill-rule="evenodd" fill-opacity="1" /><path clip-path="url(#clip050)" d="M 0 0 M32.4621 792.741 Q32.4621 797.452 36.1542 800.189 Q39.8145 802.927 46.212 802.927 Q52.6095 802.927 56.3017 800.221 Q59.9619 797.484 59.9619 792.741 Q59.9619 788.063 56.2698 785.325 Q52.5777 782.588 46.212 782.588 Q39.8781 782.588 36.186 785.325 Q32.4621 788.063 32.4621 792.741 M27.4968 792.741 Q27.4968 785.103 32.4621 780.742 Q37.4273 776.382 46.212 776.382 Q54.9649 776.382 59.9619 780.742 Q64.9272 785.103 64.9272 792.741 Q64.9272 800.412 59.9619 804.773 Q54.9649 809.101 46.212 809.101 Q37.4273 809.101 32.4621 804.773 Q27.4968 800.412 27.4968 792.741 Z" fill="#ffffff" fill-rule="evenodd" fill-opacity="1" /><path clip-path="url(#clip050)" d="M 0 0 M18.2347 760.881 L28.3562 760.881 L28.3562 748.818 L32.9077 748.818 L32.9077 760.881 L52.2594 760.881 Q56.6199 760.881 57.8613 759.703 Q59.1026 758.494 59.1026 754.834 L59.1026 748.818 L64.0042 748.818 L64.0042 754.834 Q64.0042 761.613 61.4897 764.191 Q58.9434 766.769 52.2594 766.769 L32.9077 766.769 L32.9077 771.066 L28.3562 771.066 L28.3562 766.769 L18.2347 766.769 L18.2347 760.881 Z" fill="#ffffff" fill-rule="evenodd" fill-opacity="1" /><path clip-path="url(#clip050)" d="M 0 0 M28.3562 741.116 L28.3562 735.259 L64.0042 735.259 L64.0042 741.116 L28.3562 741.116 M14.479 741.116 L14.479 735.259 L21.895 735.259 L21.895 741.116 L14.479 741.116 Z" fill="#ffffff" fill-rule="evenodd" fill-opacity="1" /><path clip-path="url(#clip050)" d="M 0 0 M42.4881 693.373 L64.0042 693.373 L64.0042 699.229 L42.679 699.229 Q37.6183 699.229 35.1038 701.203 Q32.5894 703.176 32.5894 707.123 Q32.5894 711.865 35.6131 714.602 Q38.6368 717.34 43.8567 717.34 L64.0042 717.34 L64.0042 723.228 L28.3562 723.228 L28.3562 717.34 L33.8944 717.34 Q30.6797 715.239 29.0883 712.406 Q27.4968 709.542 27.4968 705.818 Q27.4968 699.675 31.3163 696.524 Q35.1038 693.373 42.4881 693.373 Z" fill="#ffffff" fill-rule="evenodd" fill-opacity="1" /><path clip-path="url(#clip050)" d="M 0 0 M45.7664 658.234 Q39.4007 658.234 35.8996 660.876 Q32.3984 663.486 32.3984 668.228 Q32.3984 672.939 35.8996 675.581 Q39.4007 678.19 45.7664 678.19 Q52.1003 678.19 55.6014 675.581 Q59.1026 672.939 59.1026 668.228 Q59.1026 663.486 55.6014 660.876 Q52.1003 658.234 45.7664 658.234 M59.58 652.378 Q68.683 652.378 73.1071 656.42 Q77.5631 660.462 77.5631 668.801 Q77.5631 671.888 77.0857 674.626 Q76.6401 677.363 75.6852 679.941 L69.9879 679.941 Q71.3884 677.363 72.0568 674.849 Q72.7252 672.334 72.7252 669.724 Q72.7252 663.963 69.7015 661.099 Q66.7096 658.234 60.6303 658.234 L57.7339 658.234 Q60.885 660.048 62.4446 662.881 Q64.0042 665.714 64.0042 669.66 Q64.0042 676.217 59.0071 680.228 Q54.01 684.238 45.7664 684.238 Q37.491 684.238 32.4939 680.228 Q27.4968 676.217 27.4968 669.66 Q27.4968 665.714 29.0564 662.881 Q30.616 660.048 33.7671 658.234 L28.3562 658.234 L28.3562 652.378 L59.58 652.378 Z" fill="#ffffff" fill-rule="evenodd" fill-opacity="1" /><path clip-path="url(#clip050)" d="M 0 0 M29.4065 617.589 L34.9447 617.589 Q33.6716 620.072 33.035 622.745 Q32.3984 625.419 32.3984 628.283 Q32.3984 632.644 33.7352 634.84 Q35.072 637.004 37.7456 637.004 Q39.7826 637.004 40.9603 635.445 Q42.1061 633.885 43.1565 629.175 L43.6021 627.169 Q44.9389 620.931 47.3897 618.321 Q49.8086 615.679 54.1691 615.679 Q59.1344 615.679 62.0308 619.626 Q64.9272 623.541 64.9272 630.416 Q64.9272 633.28 64.3543 636.4 Q63.8132 639.487 62.6992 642.924 L56.6518 642.924 Q58.3387 639.678 59.198 636.527 Q60.0256 633.376 60.0256 630.289 Q60.0256 626.151 58.6251 623.923 Q57.1929 621.695 54.6147 621.695 Q52.2276 621.695 50.9545 623.318 Q49.6813 624.91 48.5037 630.352 L48.0262 632.389 Q46.8804 637.832 44.5251 640.251 Q42.138 642.67 38.0002 642.67 Q32.9713 642.67 30.2341 639.105 Q27.4968 635.54 27.4968 628.984 Q27.4968 625.737 27.9743 622.873 Q28.4517 620.008 29.4065 617.589 Z" fill="#ffffff" fill-rule="evenodd" fill-opacity="1" /><path clip-path="url(#clip050)" d="M 0 0 M815.955 18.8205 L815.955 41.5461 L826.244 41.5461 Q831.956 41.5461 835.075 38.5889 Q838.194 35.6318 838.194 30.163 Q838.194 24.7348 835.075 21.7777 Q831.956 18.8205 826.244 18.8205 L815.955 18.8205 M807.772 12.096 L826.244 12.096 Q836.412 12.096 841.597 16.714 Q846.823 21.2916 846.823 30.163 Q846.823 39.1155 841.597 43.6931 Q836.412 48.2706 826.244 48.2706 L815.955 48.2706 L815.955 72.576 L807.772 72.576 L807.772 12.096 Z" fill="#ffffff" fill-rule="evenodd" fill-opacity="1" /><path clip-path="url(#clip050)" d="M 0 0 M872.1 32.4315 Q866.105 32.4315 862.621 37.1306 Q859.137 41.7891 859.137 49.9314 Q859.137 58.0738 862.581 62.7728 Q866.064 67.4314 872.1 67.4314 Q878.055 67.4314 881.539 62.7323 Q885.023 58.0333 885.023 49.9314 Q885.023 41.8701 881.539 37.1711 Q878.055 32.4315 872.1 32.4315 M872.1 26.1121 Q881.823 26.1121 887.372 32.4315 Q892.922 38.7509 892.922 49.9314 Q892.922 61.0714 887.372 67.4314 Q881.823 73.7508 872.1 73.7508 Q862.338 73.7508 856.788 67.4314 Q851.279 61.0714 851.279 49.9314 Q851.279 38.7509 856.788 32.4315 Q862.338 26.1121 872.1 26.1121 Z" fill="#ffffff" fill-rule="evenodd" fill-opacity="1" /><path clip-path="url(#clip050)" d="M 0 0 M905.277 9.54393 L912.731 9.54393 L912.731 72.576 L905.277 72.576 L905.277 9.54393 Z" fill="#ffffff" fill-rule="evenodd" fill-opacity="1" /><path clip-path="url(#clip050)" d="M 0 0 M928.327 27.2059 L935.781 27.2059 L935.781 72.576 L928.327 72.576 L928.327 27.2059 M928.327 9.54393 L935.781 9.54393 L935.781 18.9825 L928.327 18.9825 L928.327 9.54393 Z" fill="#ffffff" fill-rule="evenodd" fill-opacity="1" /><path clip-path="url(#clip050)" d="M 0 0 M984.027 28.9478 L984.027 35.9153 Q980.867 34.1734 977.667 33.3227 Q974.507 32.4315 971.266 32.4315 Q964.015 32.4315 960.005 37.0496 Q955.995 41.6271 955.995 49.9314 Q955.995 58.2358 960.005 62.8538 Q964.015 67.4314 971.266 67.4314 Q974.507 67.4314 977.667 66.5807 Q980.867 65.6895 984.027 63.9476 L984.027 70.8341 Q980.908 72.2924 977.545 73.0216 Q974.224 73.7508 970.456 73.7508 Q960.208 73.7508 954.172 67.3098 Q948.136 60.8689 948.136 49.9314 Q948.136 38.832 954.212 32.472 Q960.329 26.1121 970.942 26.1121 Q974.386 26.1121 977.667 26.8413 Q980.948 27.5299 984.027 28.9478 Z" fill="#ffffff" fill-rule="evenodd" fill-opacity="1" /><path clip-path="url(#clip050)" d="M 0 0 M1035.8 48.0275 L1035.8 51.6733 L1001.53 51.6733 Q1002.01 59.3701 1006.14 63.421 Q1010.32 67.4314 1017.73 67.4314 Q1022.02 67.4314 1026.03 66.3781 Q1030.09 65.3249 1034.06 63.2184 L1034.06 70.267 Q1030.05 71.9684 1025.83 72.8596 Q1021.62 73.7508 1017.28 73.7508 Q1006.43 73.7508 1000.07 67.4314 Q993.749 61.1119 993.749 50.3365 Q993.749 39.1965 999.744 32.6746 Q1005.78 26.1121 1015.99 26.1121 Q1025.14 26.1121 1030.45 32.0264 Q1035.8 37.9003 1035.8 48.0275 M1028.34 45.84 Q1028.26 39.7232 1024.9 36.0774 Q1021.58 32.4315 1016.07 32.4315 Q1009.83 32.4315 1006.06 35.9558 Q1002.34 39.4801 1001.77 45.8805 L1028.34 45.84 Z" fill="#ffffff" fill-rule="evenodd" fill-opacity="1" /><path clip-path="url(#clip050)" d="M 0 0 M1103.33 28.5427 L1103.33 35.5912 Q1100.17 33.9709 1096.76 33.1607 Q1093.36 32.3505 1089.71 32.3505 Q1084.17 32.3505 1081.37 34.0519 Q1078.62 35.7533 1078.62 39.156 Q1078.62 41.7486 1080.6 43.2475 Q1082.59 44.7058 1088.58 46.0426 L1091.13 46.6097 Q1099.07 48.3111 1102.39 51.4303 Q1105.76 54.509 1105.76 60.0587 Q1105.76 66.3781 1100.73 70.0644 Q1095.75 73.7508 1087 73.7508 Q1083.35 73.7508 1079.39 73.0216 Q1075.46 72.3329 1071.08 70.9151 L1071.08 63.2184 Q1075.21 65.3654 1079.22 66.4591 Q1083.23 67.5124 1087.16 67.5124 Q1092.43 67.5124 1095.26 65.73 Q1098.1 63.9071 1098.1 60.6258 Q1098.1 57.5877 1096.03 55.9673 Q1094.01 54.3469 1087.08 52.8481 L1084.49 52.2405 Q1077.56 50.7821 1074.48 47.7845 Q1071.4 44.7463 1071.4 39.4801 Q1071.4 33.0797 1075.94 29.5959 Q1080.48 26.1121 1088.82 26.1121 Q1092.96 26.1121 1096.6 26.7198 Q1100.25 27.3274 1103.33 28.5427 Z" fill="#ffffff" fill-rule="evenodd" fill-opacity="1" /><path clip-path="url(#clip050)" d="M 0 0 M1155.34 45.1919 L1155.34 72.576 L1147.89 72.576 L1147.89 45.4349 Q1147.89 38.994 1145.37 35.7938 Q1142.86 32.5936 1137.84 32.5936 Q1131.8 32.5936 1128.32 36.4419 Q1124.84 40.2903 1124.84 46.9338 L1124.84 72.576 L1117.34 72.576 L1117.34 9.54393 L1124.84 9.54393 L1124.84 34.2544 Q1127.51 30.163 1131.12 28.1376 Q1134.76 26.1121 1139.5 26.1121 Q1147.32 26.1121 1151.33 30.9732 Q1155.34 35.7938 1155.34 45.1919 Z" fill="#ffffff" fill-rule="evenodd" fill-opacity="1" /><path clip-path="url(#clip050)" d="M 0 0 M1187.79 32.4315 Q1181.79 32.4315 1178.31 37.1306 Q1174.82 41.7891 1174.82 49.9314 Q1174.82 58.0738 1178.27 62.7728 Q1181.75 67.4314 1187.79 67.4314 Q1193.74 67.4314 1197.23 62.7323 Q1200.71 58.0333 1200.71 49.9314 Q1200.71 41.8701 1197.23 37.1711 Q1193.74 32.4315 1187.79 32.4315 M1187.79 26.1121 Q1197.51 26.1121 1203.06 32.4315 Q1208.61 38.7509 1208.61 49.9314 Q1208.61 61.0714 1203.06 67.4314 Q1197.51 73.7508 1187.79 73.7508 Q1178.02 73.7508 1172.47 67.4314 Q1166.97 61.0714 1166.97 49.9314 Q1166.97 38.7509 1172.47 32.4315 Q1178.02 26.1121 1187.79 26.1121 Z" fill="#ffffff" fill-rule="evenodd" fill-opacity="1" /><path clip-path="url(#clip050)" d="M 0 0 M1238.55 32.4315 Q1232.55 32.4315 1229.07 37.1306 Q1225.58 41.7891 1225.58 49.9314 Q1225.58 58.0738 1229.03 62.7728 Q1232.51 67.4314 1238.55 67.4314 Q1244.5 67.4314 1247.98 62.7323 Q1251.47 58.0333 1251.47 49.9314 Q1251.47 41.8701 1247.98 37.1711 Q1244.5 32.4315 1238.55 32.4315 M1238.55 26.1121 Q1248.27 26.1121 1253.82 32.4315 Q1259.37 38.7509 1259.37 49.9314 Q1259.37 61.0714 1253.82 67.4314 Q1248.27 73.7508 1238.55 73.7508 Q1228.78 73.7508 1223.23 67.4314 Q1217.72 61.0714 1217.72 49.9314 Q1217.72 38.7509 1223.23 32.4315 Q1228.78 26.1121 1238.55 26.1121 Z" fill="#ffffff" fill-rule="evenodd" fill-opacity="1" /><path clip-path="url(#clip050)" d="M 0 0 M1279.09 14.324 L1279.09 27.2059 L1294.45 27.2059 L1294.45 32.9987 L1279.09 32.9987 L1279.09 57.6282 Q1279.09 63.1779 1280.59 64.7578 Q1282.13 66.3376 1286.79 66.3376 L1294.45 66.3376 L1294.45 72.576 L1286.79 72.576 Q1278.16 72.576 1274.88 69.3758 Q1271.6 66.1351 1271.6 57.6282 L1271.6 32.9987 L1266.13 32.9987 L1266.13 27.2059 L1271.6 27.2059 L1271.6 14.324 L1279.09 14.324 Z" fill="#ffffff" fill-rule="evenodd" fill-opacity="1" /><path clip-path="url(#clip050)" d="M 0 0 M1304.25 27.2059 L1311.7 27.2059 L1311.7 72.576 L1304.25 72.576 L1304.25 27.2059 M1304.25 9.54393 L1311.7 9.54393 L1311.7 18.9825 L1304.25 18.9825 L1304.25 9.54393 Z" fill="#ffffff" fill-rule="evenodd" fill-opacity="1" /><path clip-path="url(#clip050)" d="M 0 0 M1365.01 45.1919 L1365.01 72.576 L1357.56 72.576 L1357.56 45.4349 Q1357.56 38.994 1355.05 35.7938 Q1352.54 32.5936 1347.51 32.5936 Q1341.48 32.5936 1337.99 36.4419 Q1334.51 40.2903 1334.51 46.9338 L1334.51 72.576 L1327.02 72.576 L1327.02 27.2059 L1334.51 27.2059 L1334.51 34.2544 Q1337.18 30.163 1340.79 28.1376 Q1344.44 26.1121 1349.18 26.1121 Q1356.99 26.1121 1361 30.9732 Q1365.01 35.7938 1365.01 45.1919 Z" fill="#ffffff" fill-rule="evenodd" fill-opacity="1" /><path clip-path="url(#clip050)" d="M 0 0 M1409.74 49.3643 Q1409.74 41.2625 1406.37 36.8065 Q1403.05 32.3505 1397.02 32.3505 Q1391.02 32.3505 1387.66 36.8065 Q1384.34 41.2625 1384.34 49.3643 Q1384.34 57.4256 1387.66 61.8816 Q1391.02 66.3376 1397.02 66.3376 Q1403.05 66.3376 1406.37 61.8816 Q1409.74 57.4256 1409.74 49.3643 M1417.19 66.9452 Q1417.19 78.5308 1412.05 84.1616 Q1406.9 89.8329 1396.29 89.8329 Q1392.36 89.8329 1388.87 89.2252 Q1385.39 88.6581 1382.11 87.4428 L1382.11 80.1917 Q1385.39 81.9741 1388.59 82.8248 Q1391.79 83.6755 1395.11 83.6755 Q1402.44 83.6755 1406.09 79.8271 Q1409.74 76.0193 1409.74 68.282 L1409.74 64.5957 Q1407.43 68.6061 1403.82 70.5911 Q1400.22 72.576 1395.19 72.576 Q1386.85 72.576 1381.74 66.2161 Q1376.64 59.8562 1376.64 49.3643 Q1376.64 38.832 1381.74 32.472 Q1386.85 26.1121 1395.19 26.1121 Q1400.22 26.1121 1403.82 28.0971 Q1407.43 30.082 1409.74 34.0924 L1409.74 27.2059 L1417.19 27.2059 L1417.19 66.9452 Z" fill="#ffffff" fill-rule="evenodd" fill-opacity="1" /><path clip-path="url(#clip050)" d="M 0 0 M1461.47 28.5427 L1461.47 35.5912 Q1458.31 33.9709 1454.9 33.1607 Q1451.5 32.3505 1447.86 32.3505 Q1442.31 32.3505 1439.51 34.0519 Q1436.76 35.7533 1436.76 39.156 Q1436.76 41.7486 1438.74 43.2475 Q1440.73 44.7058 1446.72 46.0426 L1449.27 46.6097 Q1457.21 48.3111 1460.53 51.4303 Q1463.9 54.509 1463.9 60.0587 Q1463.9 66.3781 1458.87 70.0644 Q1453.89 73.7508 1445.14 73.7508 Q1441.5 73.7508 1437.53 73.0216 Q1433.6 72.3329 1429.22 70.9151 L1429.22 63.2184 Q1433.35 65.3654 1437.36 66.4591 Q1441.37 67.5124 1445.3 67.5124 Q1450.57 67.5124 1453.41 65.73 Q1456.24 63.9071 1456.24 60.6258 Q1456.24 57.5877 1454.17 55.9673 Q1452.15 54.3469 1445.22 52.8481 L1442.63 52.2405 Q1435.7 50.7821 1432.62 47.7845 Q1429.55 44.7463 1429.55 39.4801 Q1429.55 33.0797 1434.08 29.5959 Q1438.62 26.1121 1446.96 26.1121 Q1451.1 26.1121 1454.74 26.7198 Q1458.39 27.3274 1461.47 28.5427 Z" fill="#ffffff" fill-rule="evenodd" fill-opacity="1" /><path clip-path="url(#clip050)" d="M 0 0 M1534.71 49.9314 Q1534.71 41.7081 1531.3 37.0496 Q1527.94 32.3505 1522.03 32.3505 Q1516.11 32.3505 1512.71 37.0496 Q1509.35 41.7081 1509.35 49.9314 Q1509.35 58.1548 1512.71 62.8538 Q1516.11 67.5124 1522.03 67.5124 Q1527.94 67.5124 1531.3 62.8538 Q1534.71 58.1548 1534.71 49.9314 M1509.35 34.0924 Q1511.7 30.0415 1515.26 28.0971 Q1518.87 26.1121 1523.85 26.1121 Q1532.11 26.1121 1537.26 32.6746 Q1542.44 39.2371 1542.44 49.9314 Q1542.44 60.6258 1537.26 67.1883 Q1532.11 73.7508 1523.85 73.7508 Q1518.87 73.7508 1515.26 71.8063 Q1511.7 69.8214 1509.35 65.7705 L1509.35 72.576 L1501.85 72.576 L1501.85 9.54393 L1509.35 9.54393 L1509.35 34.0924 Z" fill="#ffffff" fill-rule="evenodd" fill-opacity="1" /><path clip-path="url(#clip050)" d="M 0 0 M1573.68 76.7889 Q1570.52 84.8907 1567.52 87.3618 Q1564.52 89.8329 1559.5 89.8329 L1553.54 89.8329 L1553.54 83.5945 L1557.92 83.5945 Q1561 83.5945 1562.7 82.1361 Q1564.4 80.6778 1566.47 75.2496 L1567.8 71.8468 L1549.45 27.2059 L1557.35 27.2059 L1571.53 62.6918 L1585.71 27.2059 L1593.61 27.2059 L1573.68 76.7889 Z" fill="#ffffff" fill-rule="evenodd" fill-opacity="1" /><path clip-path="url(#clip050)" d="M 0 0 M1649.14 76.7889 Q1645.99 84.8907 1642.99 87.3618 Q1639.99 89.8329 1634.97 89.8329 L1629.01 89.8329 L1629.01 83.5945 L1633.39 83.5945 Q1636.47 83.5945 1638.17 82.1361 Q1639.87 80.6778 1641.93 75.2496 L1643.27 71.8468 L1624.92 27.2059 L1632.82 27.2059 L1647 62.6918 L1661.18 27.2059 L1669.08 27.2059 L1649.14 76.7889 Z" fill="#ffffff" fill-rule="evenodd" fill-opacity="1" /><path clip-path="url(#clip050)" d="M 0 0 M1718.17 48.0275 L1718.17 51.6733 L1683.9 51.6733 Q1684.39 59.3701 1688.52 63.421 Q1692.69 67.4314 1700.11 67.4314 Q1704.4 67.4314 1708.41 66.3781 Q1712.46 65.3249 1716.43 63.2184 L1716.43 70.267 Q1712.42 71.9684 1708.21 72.8596 Q1703.99 73.7508 1699.66 73.7508 Q1688.8 73.7508 1682.44 67.4314 Q1676.12 61.1119 1676.12 50.3365 Q1676.12 39.1965 1682.12 32.6746 Q1688.15 26.1121 1698.36 26.1121 Q1707.52 26.1121 1712.83 32.0264 Q1718.17 37.9003 1718.17 48.0275 M1710.72 45.84 Q1710.64 39.7232 1707.28 36.0774 Q1703.95 32.4315 1698.44 32.4315 Q1692.21 32.4315 1688.44 35.9558 Q1684.71 39.4801 1684.14 45.8805 L1710.72 45.84 Z" fill="#ffffff" fill-rule="evenodd" fill-opacity="1" /><path clip-path="url(#clip050)" d="M 0 0 M1751.03 49.7694 Q1741.99 49.7694 1738.51 51.8354 Q1735.02 53.9013 1735.02 58.8839 Q1735.02 62.8538 1737.62 65.2034 Q1740.25 67.5124 1744.75 67.5124 Q1750.94 67.5124 1754.67 63.1374 Q1758.44 58.7219 1758.44 51.4303 L1758.44 49.7694 L1751.03 49.7694 M1765.89 46.6907 L1765.89 72.576 L1758.44 72.576 L1758.44 65.6895 Q1755.89 69.8214 1752.08 71.8063 Q1748.27 73.7508 1742.76 73.7508 Q1735.79 73.7508 1731.66 69.8619 Q1727.57 65.9325 1727.57 59.3701 Q1727.57 51.7138 1732.67 47.825 Q1737.82 43.9361 1747.99 43.9361 L1758.44 43.9361 L1758.44 43.2069 Q1758.44 38.0623 1755.04 35.2672 Q1751.67 32.4315 1745.56 32.4315 Q1741.67 32.4315 1737.98 33.3632 Q1734.29 34.295 1730.89 36.1584 L1730.89 29.2718 Q1734.98 27.692 1738.83 26.9223 Q1742.68 26.1121 1746.33 26.1121 Q1756.17 26.1121 1761.03 31.2163 Q1765.89 36.3204 1765.89 46.6907 Z" fill="#ffffff" fill-rule="evenodd" fill-opacity="1" /><path clip-path="url(#clip050)" d="M 0 0 M1807.54 34.1734 Q1806.28 33.4443 1804.78 33.1202 Q1803.32 32.7556 1801.54 32.7556 Q1795.22 32.7556 1791.82 36.8875 Q1788.46 40.9789 1788.46 48.6757 L1788.46 72.576 L1780.96 72.576 L1780.96 27.2059 L1788.46 27.2059 L1788.46 34.2544 Q1790.8 30.1225 1794.57 28.1376 Q1798.34 26.1121 1803.73 26.1121 Q1804.5 26.1121 1805.43 26.2337 Q1806.36 26.3147 1807.49 26.5172 L1807.54 34.1734 Z" fill="#ffffff" fill-rule="evenodd" fill-opacity="1" /><path clip-path="url(#clip052)" d="
M377.516 160.256 L377.516 1386.4 L596.372 1386.4 L596.372 160.256 L377.516 160.256 L377.516 160.256  Z
  " fill="#ff0000" fill-rule="evenodd" fill-opacity="1"/>
<polyline clip-path="url(#clip052)" style="stroke:#ffffff; stroke-width:4; stroke-opacity:1; fill:none" points="
  377.516,160.256 377.516,1386.4 596.372,1386.4 596.372,160.256 377.516,160.256 
  "/>
<path clip-path="url(#clip052)" d="
M514.301 1386.4 L514.301 1386.4 L733.157 1386.4 L733.157 1386.4 L514.301 1386.4 L514.301 1386.4  Z
  " fill="#ff0000" fill-rule="evenodd" fill-opacity="1"/>
<polyline clip-path="url(#clip052)" style="stroke:#ffffff; stroke-width:4; stroke-opacity:1; fill:none" points="
  514.301,1386.4 514.301,1386.4 733.157,1386.4 514.301,1386.4 
  "/>
<path clip-path="url(#clip052)" d="
M651.086 242.336 L651.086 1386.4 L869.942 1386.4 L869.942 242.336 L651.086 242.336 L651.086 242.336  Z
  " fill="#ff0000" fill-rule="evenodd" fill-opacity="1"/>
<polyline clip-path="url(#clip052)" style="stroke:#ffffff; stroke-width:4; stroke-opacity:1; fill:none" points="
  651.086,242.336 651.086,1386.4 869.942,1386.4 869.942,242.336 651.086,242.336 
  "/>
<path clip-path="url(#clip052)" d="
M787.871 1386.4 L787.871 1386.4 L1006.73 1386.4 L1006.73 1386.4 L787.871 1386.4 L787.871 1386.4  Z
  " fill="#ff0000" fill-rule="evenodd" fill-opacity="1"/>
<polyline clip-path="url(#clip052)" style="stroke:#ffffff; stroke-width:4; stroke-opacity:1; fill:none" points="
  787.871,1386.4 787.871,1386.4 1006.73,1386.4 787.871,1386.4 
  "/>
<path clip-path="url(#clip052)" d="
M924.656 238.547 L924.656 1386.4 L1143.51 1386.4 L1143.51 238.547 L924.656 238.547 L924.656 238.547  Z
  " fill="#ff0000" fill-rule="evenodd" fill-opacity="1"/>
<polyline clip-path="url(#clip052)" style="stroke:#ffffff; stroke-width:4; stroke-opacity:1; fill:none" points="
  924.656,238.547 924.656,1386.4 1143.51,1386.4 1143.51,238.547 924.656,238.547 
  "/>
<path clip-path="url(#clip052)" d="
M1061.44 1386.4 L1061.44 1386.4 L1280.3 1386.4 L1280.3 1386.4 L1061.44 1386.4 L1061.44 1386.4  Z
  " fill="#ff0000" fill-rule="evenodd" fill-opacity="1"/>
<polyline clip-path="url(#clip052)" style="stroke:#ffffff; stroke-width:4; stroke-opacity:1; fill:none" points="
  1061.44,1386.4 1061.44,1386.4 1280.3,1386.4 1061.44,1386.4 
  "/>
<path clip-path="url(#clip052)" d="
M1198.23 247.387 L1198.23 1386.4 L1417.08 1386.4 L1417.08 247.387 L1198.23 247.387 L1198.23 247.387  Z
  " fill="#ff0000" fill-rule="evenodd" fill-opacity="1"/>
<polyline clip-path="url(#clip052)" style="stroke:#ffffff; stroke-width:4; stroke-opacity:1; fill:none" points="
  1198.23,247.387 1198.23,1386.4 1417.08,1386.4 1417.08,247.387 1198.23,247.387 
  "/>
<path clip-path="url(#clip052)" d="
M1335.01 1386.4 L1335.01 1386.4 L1553.87 1386.4 L1553.87 1386.4 L1335.01 1386.4 L1335.01 1386.4  Z
  " fill="#ff0000" fill-rule="evenodd" fill-opacity="1"/>
<polyline clip-path="url(#clip052)" style="stroke:#ffffff; stroke-width:4; stroke-opacity:1; fill:none" points="
  1335.01,1386.4 1335.01,1386.4 1553.87,1386.4 1335.01,1386.4 
  "/>
<path clip-path="url(#clip052)" d="
M1471.8 268.854 L1471.8 1386.4 L1690.65 1386.4 L1690.65 268.854 L1471.8 268.854 L1471.8 268.854  Z
  " fill="#ff0000" fill-rule="evenodd" fill-opacity="1"/>
<polyline clip-path="url(#clip052)" style="stroke:#ffffff; stroke-width:4; stroke-opacity:1; fill:none" points="
  1471.8,268.854 1471.8,1386.4 1690.65,1386.4 1690.65,268.854 1471.8,268.854 
  "/>
<path clip-path="url(#clip052)" d="
M1608.58 1386.4 L1608.58 1386.4 L1827.44 1386.4 L1827.44 1386.4 L1608.58 1386.4 L1608.58 1386.4  Z
  " fill="#ff0000" fill-rule="evenodd" fill-opacity="1"/>
<polyline clip-path="url(#clip052)" style="stroke:#ffffff; stroke-width:4; stroke-opacity:1; fill:none" points="
  1608.58,1386.4 1608.58,1386.4 1827.44,1386.4 1608.58,1386.4 
  "/>
<path clip-path="url(#clip052)" d="
M1745.37 249.912 L1745.37 1386.4 L1964.22 1386.4 L1964.22 249.912 L1745.37 249.912 L1745.37 249.912  Z
  " fill="#ff0000" fill-rule="evenodd" fill-opacity="1"/>
<polyline clip-path="url(#clip052)" style="stroke:#ffffff; stroke-width:4; stroke-opacity:1; fill:none" points="
  1745.37,249.912 1745.37,1386.4 1964.22,1386.4 1964.22,249.912 1745.37,249.912 
  "/>
<path clip-path="url(#clip052)" d="
M1882.15 1386.4 L1882.15 1386.4 L2101.01 1386.4 L2101.01 1386.4 L1882.15 1386.4 L1882.15 1386.4  Z
  " fill="#ff0000" fill-rule="evenodd" fill-opacity="1"/>
<polyline clip-path="url(#clip052)" style="stroke:#ffffff; stroke-width:4; stroke-opacity:1; fill:none" points="
  1882.15,1386.4 1882.15,1386.4 2101.01,1386.4 1882.15,1386.4 
  "/>
<path clip-path="url(#clip052)" d="
M2018.94 1109.85 L2018.94 1386.4 L2237.79 1386.4 L2237.79 1109.85 L2018.94 1109.85 L2018.94 1109.85  Z
  " fill="#ff0000" fill-rule="evenodd" fill-opacity="1"/>
<polyline clip-path="url(#clip052)" style="stroke:#ffffff; stroke-width:4; stroke-opacity:1; fill:none" points="
  2018.94,1109.85 2018.94,1386.4 2237.79,1386.4 2237.79,1109.85 2018.94,1109.85 
  "/>
</svg>
